<?xml version="1.0" standalone="no"?><svg xmlns="http://www.w3.org/2000/svg" viewBox="0 0 1440 320"><path fill="#0099ff" fill-opacity="1" d="M0,128L24,128C48,128,96,128,144,149.3C192,171,240,213,288,218.7C336,224,384,192,432,165.3C480,139,528,117,576,128C624,139,672,181,720,186.7C768,192,816,160,864,154.7C912,149,960,171,1008,160C1056,149,1104,107,1152,101.3C1200,96,1248,128,1296,144C1344,160,1392,160,1416,160L1440,160L1440,320L1416,320C1392,320,1344,320,1296,320C1248,320,1200,320,1152,320C1104,320,1056,320,1008,320C960,320,912,320,864,320C816,320,768,320,720,320C672,320,624,320,576,320C528,320,480,320,432,320C384,320,336,320,288,320C240,320,192,320,144,320C96,320,48,320,24,320L0,320Z"></path></svg>